<svg width="84" height="9" viewBox="0 0 84 9" fill="none" xmlns="http://www.w3.org/2000/svg">
<g clip-path="url(#clip0_4_26)">
<path d="M0 0.149902H2.8C5.42 0.149902 7.28 1.8299 7.28 4.1999C7.28 6.5699 5.42 8.2599 2.8 8.2599H0V0.149902ZM2.87 7.1799C4.75 7.1799 6.06 5.9499 6.06 4.2099C6.06 2.4699 4.75 1.2499 2.87 1.2499H1.19V7.1899H2.87V7.1799Z" fill="#231F20"/>
<path d="M10.04 0.149902H11.23V8.2599H10.04V0.149902Z" fill="#231F20"/>
<path d="M21.8904 0.149902L18.4104 8.2599H17.0904L13.6104 0.149902H14.9304L17.7504 6.7199L20.5704 0.149902H21.8904Z" fill="#231F20"/>
<path d="M25.4598 1.2599V3.5699H29.7598V4.6799H25.4598V7.1499H30.2198V8.2599H24.2598V0.149902H30.2198V1.2599H25.4598Z" fill="#231F20"/>
<path d="M32.46 7.08999L33.18 6.19999C33.9 6.87999 34.75 7.32999 35.85 7.32999C36.95 7.32999 37.55 6.73999 37.55 6.08999C37.55 5.31999 36.88 5.02999 35.52 4.71999C33.87 4.32999 32.77 3.83999 32.77 2.36999C32.77 1.00999 33.95 -0.0100098 35.58 -0.0100098C36.83 -0.0100098 37.76 0.44999 38.54 1.12999L37.86 2.02999C37.18 1.39999 36.36 1.03999 35.54 1.03999C34.63 1.03999 33.99 1.61999 33.99 2.26999C33.99 3.02999 34.69 3.28999 36.02 3.59999C37.64 3.97999 38.76 4.51999 38.76 5.96999C38.76 7.33999 37.72 8.37999 35.81 8.37999C34.45 8.37999 33.33 7.90999 32.47 7.07999L32.46 7.08999Z" fill="#231F20"/>
<path d="M40.9502 7.08999L41.6702 6.19999C42.3902 6.87999 43.2402 7.32999 44.3402 7.32999C45.4402 7.32999 46.0402 6.73999 46.0402 6.08999C46.0402 5.31999 45.3702 5.02999 44.0102 4.71999C42.3602 4.32999 41.2602 3.83999 41.2602 2.36999C41.2602 1.00999 42.4402 -0.0100098 44.0702 -0.0100098C45.3202 -0.0100098 46.2502 0.44999 47.0302 1.12999L46.3502 2.02999C45.6702 1.39999 44.8502 1.03999 44.0302 1.03999C43.1202 1.03999 42.4802 1.61999 42.4802 2.26999C42.4802 3.02999 43.1802 3.28999 44.5102 3.59999C46.1302 3.97999 47.2502 4.51999 47.2502 5.96999C47.2502 7.33999 46.2102 8.37999 44.3002 8.37999C42.9402 8.37999 41.8202 7.90999 40.9602 7.07999L40.9502 7.08999Z" fill="#231F20"/>
<path d="M51.0799 1.2599V3.5699H55.3799V4.6799H51.0799V7.1499H55.8399V8.2599H49.8799V0.149902H55.8399V1.2599H51.0799Z" fill="#231F20"/>
<path d="M58.6504 0.149902H59.8404L64.5004 6.2999V0.149902H65.6904V8.2599H64.5004L59.8404 2.1099V8.2599H58.6504V0.149902Z" fill="#231F20"/>
<path d="M68.46 4.20001C68.46 1.92001 70.4 0.0100098 72.68 0.0100098C73.84 0.0100098 74.9 0.49001 75.67 1.28001L74.83 2.08001C74.29 1.49001 73.52 1.10001 72.68 1.10001C71.06 1.10001 69.69 2.52001 69.69 4.19001C69.69 5.86001 71.06 7.29001 72.68 7.29001C73.52 7.29001 74.28 6.90001 74.83 6.31001L75.67 7.11001C74.9 7.89001 73.84 8.38001 72.68 8.38001C70.4 8.38001 68.47 6.46001 68.47 4.18001L68.46 4.20001Z" fill="#231F20"/>
<path d="M79.2498 1.2599V3.5699H83.5498V4.6799H79.2498V7.1499H84.0098V8.2599H78.0498V0.149902H84.0098V1.2599H79.2498Z" fill="#231F20"/>
</g>
<defs>
<clipPath id="clip0_4_26">
<rect width="84" height="8.4" fill="white"/>
</clipPath>
</defs>
</svg>
